<?xml version="1.0" standalone="no"?>
<!DOCTYPE svg PUBLIC "-//W3C//DTD SVG 20010904//EN"
 "http://www.w3.org/TR/2001/REC-SVG-20010904/DTD/svg10.dtd">
<svg version="1.0" xmlns="http://www.w3.org/2000/svg"
 width="1080.000000pt" height="1080.000000pt" viewBox="0 0 1080.000000 1080.000000"
 preserveAspectRatio="xMidYMid meet">
<metadata>
Created by potrace 1.14, written by Peter Selinger 2001-2017
</metadata>
<g transform="translate(0.000000,1080.000000) scale(0.100000,-0.100000)"
fill="#000000" stroke="none">
<path d="M6082 10782 c-6 -2 -8 -10 -5 -18 4 -10 0 -12 -12 -8 -9 4 -20 2 -24
-4 -3 -6 -26 -13 -50 -17 -25 -4 -62 -15 -83 -26 -20 -10 -42 -19 -48 -19 -6
0 -18 -7 -26 -15 -9 -8 -25 -15 -37 -15 -12 -1 -40 -12 -62 -25 -98 -60 -149
-80 -194 -76 -34 2 -42 0 -36 -10 3 -8 -1 -5 -10 6 -9 11 -19 19 -23 19 -4 -1
-17 2 -30 7 -12 5 -58 10 -102 11 -44 2 -80 7 -80 11 0 4 -9 3 -21 -3 -11 -7
-23 -9 -26 -6 -3 3 -15 0 -27 -6 -11 -7 -24 -11 -28 -10 -5 1 -8 -3 -8 -10 0
-6 -3 -8 -6 -5 -4 3 -17 -2 -30 -12 -13 -10 -37 -17 -58 -16 -24 0 -36 -4 -36
-13 0 -7 -4 -10 -10 -7 -5 3 -10 -1 -10 -9 0 -10 -7 -13 -25 -10 -27 5 -32 -4
-12 -26 10 -12 9 -12 -3 -3 -20 14 -84 -12 -74 -30 6 -9 4 -9 -8 1 -13 10 -17
10 -22 -3 -3 -8 -12 -15 -21 -15 -8 0 -15 -4 -15 -10 0 -5 -6 -10 -14 -10 -7
0 -29 -14 -47 -31 -19 -17 -28 -28 -21 -24 20 10 14 -12 -18 -68 -16 -30 -31
-67 -31 -83 -1 -16 -8 -43 -15 -59 -13 -32 -25 -78 -27 -107 -1 -9 -4 -15 -8
-12 -8 4 -30 -74 -32 -113 -1 -13 -5 -23 -9 -23 -5 0 -8 -11 -8 -24 0 -14 -6
-31 -12 -38 -7 -7 -15 -24 -17 -38 -1 -14 -8 -28 -15 -32 -6 -4 -7 -8 -2 -8 5
0 3 -6 -3 -13 -6 -8 -8 -17 -4 -20 3 -4 1 -7 -5 -7 -7 0 -12 -8 -12 -19 0 -10
-7 -24 -15 -31 -8 -7 -15 -18 -15 -25 0 -7 -8 -16 -17 -20 -17 -6 -17 -7 1
-20 10 -8 22 -13 25 -11 17 11 91 16 92 6 1 -5 2 -15 3 -20 0 -6 6 -14 11 -18
6 -4 12 -20 14 -37 1 -16 8 -36 13 -42 7 -9 6 -13 -3 -13 -8 -1 -3 -8 11 -16
15 -9 18 -13 6 -9 -15 4 -17 3 -7 -8 21 -26 33 -228 15 -262 -7 -14 -10 -25
-7 -25 3 0 -1 -7 -8 -17 -8 -9 -13 -18 -11 -20 2 -2 -2 -30 -9 -63 -8 -39 -16
-60 -26 -60 -7 0 -16 -6 -19 -13 -3 -9 -19 -13 -45 -11 -34 2 -40 -1 -36 -15
5 -19 -15 -41 -38 -41 -9 0 -18 -7 -21 -15 -4 -8 -12 -15 -19 -15 -8 0 -21 -7
-29 -16 -9 -8 -16 -12 -16 -8 0 4 -9 -1 -21 -12 -12 -10 -24 -19 -28 -19 -3 0
-5 -3 -4 -6 1 -3 -5 -6 -13 -7 -7 -1 -21 -3 -29 -4 -9 -1 -14 -7 -11 -15 3 -8
-2 -13 -14 -13 -11 0 -20 -4 -20 -10 0 -5 -5 -10 -11 -10 -6 0 -17 -6 -24 -12
-25 -23 -41 -33 -54 -36 -7 -1 -22 -11 -33 -22 -12 -11 -25 -17 -30 -14 -4 3
-8 1 -8 -5 0 -5 -21 -25 -47 -43 -27 -17 -54 -38 -61 -44 -6 -7 -21 -16 -32
-19 -11 -4 -18 -11 -15 -16 4 -5 1 -9 -5 -9 -12 0 -81 -50 -110 -80 -8 -8 -22
-16 -30 -18 -8 -2 -22 -11 -30 -21 -8 -9 -33 -30 -55 -46 -51 -38 -73 -56 -97
-77 -10 -10 -22 -18 -26 -18 -5 0 -21 -13 -35 -30 -15 -16 -31 -30 -35 -30 -5
0 -14 -11 -20 -25 -6 -14 -17 -24 -24 -23 -7 2 -12 -3 -11 -9 2 -7 -4 -13 -12
-13 -8 0 -15 -7 -15 -15 0 -8 -3 -14 -7 -14 -19 3 -36 -2 -30 -8 4 -3 -2 -12
-13 -20 -19 -13 -18 -43 2 -43 5 0 6 5 3 10 -3 6 -1 10 4 10 13 0 12 4 15
-118 1 -51 6 -96 12 -100 5 -4 10 -15 11 -24 1 -34 3 -38 18 -38 9 0 15 -9 15
-24 0 -14 -7 -31 -15 -40 -8 -8 -15 -26 -15 -40 0 -14 -4 -26 -9 -26 -5 0 -16
-18 -24 -39 -9 -22 -21 -42 -27 -46 -5 -3 -10 -15 -10 -26 0 -10 -4 -19 -9
-19 -5 0 -13 -10 -16 -22 -10 -35 -39 -88 -48 -88 -4 0 -6 -4 -2 -9 3 -5 -2
-17 -11 -25 -8 -9 -12 -16 -8 -16 3 0 1 -7 -6 -15 -7 -8 -10 -15 -7 -15 4 0
-4 -21 -17 -47 -13 -27 -32 -66 -42 -88 -10 -22 -21 -42 -24 -45 -10 -8 -70
-134 -70 -147 0 -6 -7 -13 -15 -17 -8 -3 -15 -11 -15 -19 0 -20 -52 -121 -67
-130 -9 -6 -10 -13 -4 -26 7 -12 5 -26 -4 -44 -8 -15 -11 -27 -7 -27 4 0 0 -5
-8 -10 -12 -8 -12 -10 -1 -10 10 0 11 -3 2 -13 -8 -10 -7 -19 4 -33 8 -10 15
-29 15 -42 0 -12 6 -25 13 -28 7 -2 14 -21 15 -41 2 -21 6 -40 10 -43 5 -3 16
-22 25 -42 10 -20 26 -40 37 -43 11 -4 18 -10 15 -15 -3 -5 3 -13 12 -19 10
-6 14 -11 10 -11 -4 0 -2 -6 5 -14 7 -8 16 -12 21 -9 4 2 7 -3 7 -11 0 -9 7
-16 16 -16 8 0 13 -4 9 -9 -3 -5 5 -20 17 -33 21 -21 32 -26 63 -32 6 -1 16
-5 23 -9 6 -5 12 -5 12 -1 0 3 6 2 13 -3 6 -6 35 -16 62 -23 28 -7 55 -17 61
-22 6 -4 30 -9 53 -11 22 -1 41 -6 41 -11 0 -5 3 -6 6 -3 4 3 16 1 28 -5 11
-6 32 -12 46 -13 14 -1 31 -5 38 -9 7 -4 17 -4 22 -1 6 3 10 2 10 -3 0 -6 14
-7 35 -2 19 4 35 4 35 0 0 -5 8 -9 18 -8 36 0 176 -13 180 -17 3 -3 11 0 18 6
8 6 14 6 18 0 4 -6 18 -6 36 -1 17 5 39 7 50 5 11 -2 20 0 20 4 0 4 10 7 23 6
12 -1 27 2 33 7 7 5 37 11 68 13 64 5 68 -3 24 -48 -16 -15 -28 -31 -28 -35 0
-10 -29 -49 -52 -70 -10 -9 -18 -20 -18 -25 0 -10 -42 -71 -52 -75 -5 -2 -8
-9 -8 -16 0 -6 -18 -29 -40 -50 -22 -21 -40 -47 -40 -59 0 -11 -3 -18 -6 -14
-11 11 -47 -31 -38 -45 4 -7 4 -10 0 -6 -7 6 -46 -25 -46 -37 0 -3 -9 -14 -21
-26 -13 -13 -18 -28 -15 -42 3 -12 3 -16 0 -9 -8 17 -24 15 -24 -3 0 -9 -7
-18 -15 -21 -8 -4 -12 -10 -9 -15 3 -5 0 -9 -5 -9 -6 0 -11 -6 -11 -13 0 -7
-13 -27 -29 -44 -16 -18 -27 -34 -25 -36 2 -2 -7 -14 -21 -27 -14 -13 -25 -28
-25 -34 0 -6 -14 -25 -30 -43 -17 -18 -30 -37 -30 -42 0 -6 -4 -11 -10 -11 -5
0 -10 -9 -10 -20 0 -11 -3 -19 -8 -17 -4 1 -9 -2 -11 -8 -3 -5 -13 -19 -23
-29 -10 -11 -18 -24 -18 -28 0 -5 -4 -6 -10 -3 -5 3 -7 0 -5 -7 3 -8 -2 -23
-12 -33 -10 -11 -24 -32 -32 -47 -8 -16 -18 -28 -23 -28 -4 0 -8 -9 -8 -20 0
-12 -7 -20 -17 -20 -9 0 -13 -3 -10 -6 3 -4 -3 -18 -13 -32 -11 -13 -20 -29
-20 -33 0 -5 -8 -18 -17 -29 -41 -46 -49 -57 -64 -90 -9 -19 -20 -50 -23 -68
-4 -18 -12 -30 -17 -26 -5 3 -9 -4 -9 -16 0 -11 -9 -30 -20 -42 -11 -12 -20
-30 -20 -40 0 -10 -5 -18 -11 -18 -5 0 -7 -4 -4 -10 3 -6 2 -10 -3 -10 -10 0
-12 -16 -11 -95 2 -94 3 -95 14 -95 5 0 3 -5 -5 -10 -8 -5 -10 -10 -5 -10 6 0
12 -14 13 -32 2 -17 6 -36 11 -42 7 -10 9 -23 13 -73 1 -8 5 -9 12 -4 8 6 11
-7 12 -45 1 -30 8 -62 15 -71 12 -14 12 -16 0 -8 -11 6 -11 2 1 -21 40 -75 42
-82 26 -98 -9 -8 -19 -12 -23 -8 -4 4 -5 3 -3 -3 1 -5 -38 -51 -87 -100 -50
-50 -97 -101 -105 -114 -8 -13 -39 -48 -67 -79 -29 -30 -53 -61 -53 -67 0 -7
-8 -21 -17 -33 -47 -54 -53 -63 -53 -71 0 -5 -6 -12 -12 -15 -10 -5 -10 -7 0
-12 19 -9 15 -45 -4 -37 -13 5 -15 2 -8 -18 4 -13 7 -37 6 -54 0 -16 -3 -79
-6 -140 -3 -60 -8 -159 -11 -220 -3 -60 -6 -150 -7 -200 -1 -49 -5 -95 -10
-101 -4 -6 -9 -30 -10 -54 -1 -23 -6 -47 -12 -53 -6 -7 -12 -25 -13 -42 -6
-70 -10 -102 -16 -112 -4 -6 -1 -14 5 -16 10 -4 10 -6 0 -6 -7 -1 -10 -5 -7
-11 3 -5 2 -10 -3 -10 -5 0 -9 -6 -9 -12 -1 -12 -14 -57 -44 -158 -6 -19 -12
-45 -13 -57 0 -13 -4 -23 -9 -23 -4 0 -5 -11 -3 -25 3 -14 0 -25 -5 -25 -6 0
-7 -4 -4 -10 3 -5 3 -16 -2 -22 -4 -7 -8 -19 -10 -27 -1 -8 -7 -17 -13 -21 -7
-4 -11 -9 -9 -11 4 -6 -33 -101 -48 -124 -7 -11 -13 -27 -13 -37 0 -10 -4 -18
-9 -18 -5 0 -11 -13 -14 -30 -4 -16 -16 -39 -27 -50 -11 -11 -17 -20 -13 -20
5 0 -1 -7 -11 -15 -11 -8 -16 -15 -12 -15 4 0 0 -7 -8 -16 -9 -8 -16 -22 -16
-30 0 -8 -4 -14 -9 -14 -5 0 -14 -14 -20 -31 -14 -42 -14 -56 0 -42 14 14 39
6 39 -12 0 -7 11 -20 24 -28 19 -13 23 -24 23 -61 0 -25 -3 -46 -6 -46 -3 0
-7 -17 -8 -38 -4 -51 -13 -105 -18 -110 -3 -3 0 -11 6 -18 6 -7 6 -14 0 -18
-5 -3 -7 -15 -4 -26 3 -11 0 -20 -6 -20 -5 0 -8 -6 -5 -13 2 -7 -5 -23 -16
-35 -12 -12 -22 -35 -23 -51 -1 -17 -7 -27 -14 -24 -13 5 -36 -31 -25 -42 4
-3 0 -12 -8 -18 -15 -12 -22 -29 -23 -54 0 -7 -4 -13 -8 -13 -4 0 -14 -17 -22
-37 -8 -21 -26 -51 -40 -67 -14 -17 -34 -46 -44 -65 -10 -20 -28 -47 -40 -60
-12 -14 -20 -28 -17 -33 3 -4 0 -8 -6 -8 -6 0 -15 -11 -20 -25 -5 -14 -14 -25
-20 -25 -6 0 -9 -4 -6 -8 3 -5 -4 -18 -14 -30 -11 -12 -20 -28 -20 -36 0 -8
-4 -17 -8 -20 -5 -3 -8 -18 -7 -33 1 -15 -3 -34 -8 -41 -5 -7 -7 -15 -3 -19 3
-3 6 -1 6 6 0 7 4 10 9 6 5 -3 8 -18 7 -33 -4 -32 22 -78 36 -64 6 6 19 5 36
-4 14 -7 29 -11 34 -8 4 3 8 0 8 -6 0 -6 5 -8 10 -5 6 3 10 2 10 -4 0 -11 36
-19 115 -25 28 -2 55 -5 60 -6 6 -1 12 -1 15 0 18 7 39 7 35 0 -3 -5 -1 -11 5
-15 5 -3 10 -2 10 4 0 6 11 6 33 0 44 -13 376 -8 462 7 39 7 87 15 109 17 21
3 43 10 49 16 15 15 27 14 27 -3 0 -8 8 -13 18 -11 9 2 23 4 31 4 8 1 12 4 8
7 -3 4 17 18 46 32 29 14 53 29 55 33 2 4 11 5 19 2 13 -5 15 -2 10 11 -4 10
-3 15 3 11 5 -3 18 -1 27 4 14 8 15 10 3 11 -13 0 -13 1 0 10 13 8 12 10 -2
10 -10 0 -18 3 -19 8 0 4 -1 78 -1 164 -1 87 -4 155 -8 153 -4 -2 -5 6 -4 18
1 12 3 22 4 22 7 0 3 106 -5 109 -6 3 -5 5 2 5 8 1 9 10 4 28 -5 16 -14 27
-20 25 -7 -1 -10 2 -6 7 3 6 12 8 19 5 13 -5 23 12 33 56 8 31 12 45 14 45 1
0 3 9 5 20 6 36 9 50 17 62 4 7 1 26 -8 42 -8 17 -15 35 -15 40 0 6 -15 25
-34 43 -21 21 -36 46 -39 68 -2 19 -6 41 -8 49 -3 8 6 15 21 17 13 3 27 9 31
15 5 8 9 8 14 -1 5 -8 12 -7 26 6 15 14 17 20 6 32 -9 13 -9 14 1 8 9 -5 12 7
13 51 1 32 1 62 0 66 -1 5 3 6 8 3 5 -3 14 9 21 27 7 17 25 57 41 88 16 31 29
64 29 72 0 8 7 17 15 21 8 3 15 14 15 25 0 11 3 21 8 23 10 5 57 70 65 91 4
10 11 15 17 12 6 -3 7 1 4 9 -3 9 -1 16 5 16 6 0 10 3 10 7 -3 20 2 34 10 29
5 -4 12 8 16 25 4 17 13 33 21 36 8 3 14 11 14 19 0 8 5 14 12 14 6 0 9 3 5 6
-8 8 25 44 35 38 5 -3 7 -2 6 3 -4 12 42 83 54 83 6 0 9 3 5 6 -3 3 7 19 21
36 69 78 75 85 112 138 13 19 29 38 35 42 5 4 6 8 1 8 -5 0 3 12 18 26 14 15
26 31 26 36 0 5 4 7 8 4 10 -6 43 30 35 38 -4 3 -2 6 4 6 5 0 15 12 21 26 7
14 17 22 22 19 6 -3 10 -1 10 5 0 6 14 26 30 43 17 18 37 39 45 48 8 9 15 21
15 27 0 6 9 14 20 17 11 3 20 12 20 18 0 7 9 18 20 25 12 7 19 16 16 21 -3 4
5 13 17 20 12 7 34 29 50 49 54 73 63 83 95 117 17 19 32 37 32 40 0 3 9 25
19 48 21 46 50 150 53 191 1 14 9 28 16 31 12 4 12 8 1 22 -10 12 -10 14 -1 9
6 -4 12 -2 12 3 0 6 3 11 8 10 15 -2 52 14 52 23 0 5 5 6 10 3 6 -3 10 -1 10
5 0 6 5 8 10 5 6 -3 10 -1 10 4 0 6 3 10 7 10 28 -5 53 2 47 13 -4 6 -3 8 3 5
12 -8 85 17 76 26 -3 4 1 7 10 7 10 0 17 4 17 10 0 5 7 7 15 4 8 -4 15 -2 15
4 0 6 13 13 29 17 16 3 43 17 62 31 18 13 41 24 52 24 10 0 15 5 12 10 -3 6 2
11 12 11 10 1 23 2 28 4 6 1 15 3 21 3 7 1 15 13 18 27 4 14 11 25 17 25 8 0
8 -4 -1 -14 -9 -12 -8 -15 9 -13 12 1 21 7 21 15 0 7 5 10 10 7 6 -3 10 -1 10
6 0 7 3 10 6 6 3 -3 11 -1 18 4 53 44 66 60 86 99 12 25 29 57 36 72 8 14 14
33 14 42 0 9 4 16 9 16 5 0 14 13 20 30 5 16 6 30 1 30 -4 0 -6 9 -3 20 3 11
14 20 24 20 21 0 26 16 7 23 -10 4 -10 6 0 6 7 1 12 14 12 31 0 17 4 30 9 30
6 0 8 9 6 20 -2 11 0 20 4 20 5 0 9 12 9 27 0 15 4 29 10 31 6 2 8 10 5 19 -4
11 -2 14 5 9 8 -5 12 3 13 23 1 17 3 36 4 41 1 6 3 17 4 26 0 8 6 12 11 9 6
-4 10 -3 9 2 -5 17 14 83 21 78 5 -3 11 -1 15 5 3 5 1 10 -5 10 -7 0 -6 9 3
28 8 15 19 43 25 62 43 146 55 180 67 190 8 7 12 16 9 22 -3 5 1 19 9 31 14
23 32 76 29 90 -1 4 3 7 10 7 6 0 9 3 5 6 -9 9 30 91 58 121 14 16 25 31 25
35 0 5 9 8 19 8 12 0 23 -11 30 -30 5 -16 15 -30 22 -30 7 0 10 -3 6 -6 -3 -4
7 -18 23 -32 17 -15 30 -34 30 -44 0 -10 7 -18 15 -18 8 0 15 -7 15 -15 0 -8
6 -15 14 -15 8 0 16 -10 18 -22 2 -13 9 -22 15 -21 8 2 10 -4 6 -14 -4 -11 -3
-14 5 -9 8 5 12 0 12 -12 0 -11 7 -23 16 -26 8 -3 12 -10 9 -16 -3 -6 1 -13 9
-16 9 -3 13 -10 10 -15 -3 -5 0 -9 5 -9 6 0 11 -7 11 -16 0 -8 3 -13 8 -11 4
3 13 -1 20 -9 7 -8 10 -14 6 -14 -4 0 0 -8 9 -18 10 -10 14 -22 10 -27 -5 -4
-3 -5 3 -2 10 6 28 -20 24 -32 -1 -2 5 -8 14 -13 9 -5 14 -13 11 -19 -4 -5 1
-9 9 -9 9 0 16 -7 16 -15 0 -9 7 -18 15 -21 8 -4 15 -14 15 -23 0 -9 9 -22 20
-29 12 -7 18 -16 16 -21 -3 -5 3 -16 14 -26 11 -10 17 -22 14 -26 -3 -5 0 -9
6 -9 6 0 9 -4 6 -9 -3 -4 8 -19 24 -31 22 -17 29 -29 25 -44 -3 -12 -2 -16 1
-9 4 8 11 7 24 -5 15 -12 16 -18 7 -24 -8 -5 -7 -8 6 -8 9 0 17 -6 17 -13 0
-7 16 -29 36 -49 19 -21 33 -41 30 -46 -3 -5 15 -21 39 -36 24 -16 46 -35 49
-43 3 -8 10 -11 16 -8 5 3 10 -3 10 -14 0 -12 7 -21 16 -21 8 0 12 -4 9 -10
-3 -5 -2 -10 2 -10 5 0 9 -18 8 -40 0 -22 -4 -40 -9 -40 -4 0 -6 -6 -3 -14 3
-8 3 -17 -1 -21 -4 -4 -8 -19 -8 -33 -1 -15 -2 -35 -3 -44 -1 -9 -8 -23 -16
-32 -10 -9 -11 -17 -5 -21 6 -4 8 -11 5 -16 -6 -8 17 -14 40 -9 5 1 7 -2 3 -6
-12 -12 12 -33 30 -27 9 3 14 3 10 -2 -8 -9 15 -35 31 -35 6 0 11 -5 11 -11 0
-6 10 -19 23 -30 12 -10 17 -18 11 -19 -6 0 -11 -7 -11 -15 0 -8 5 -11 10 -8
5 3 13 0 17 -7 6 -9 14 -8 38 4 34 18 46 20 38 8 -2 -4 4 -8 15 -8 10 0 19 4
19 9 0 4 4 5 10 2 19 -12 80 -13 80 -1 0 7 4 6 9 -3 5 -7 11 -9 14 -4 9 15 64
14 77 -2 7 -8 17 -12 23 -8 20 12 -2 -27 -55 -97 -28 -39 -56 -70 -60 -70 -5
0 -7 -4 -4 -9 3 -4 -3 -19 -14 -31 -11 -13 -20 -29 -20 -37 0 -7 -4 -13 -8
-13 -12 0 -44 -59 -37 -70 3 -6 1 -10 -4 -10 -6 0 -11 -7 -11 -15 0 -8 5 -15
11 -15 5 0 9 -8 8 -17 -5 -32 13 -108 30 -128 15 -18 15 -19 -1 -6 -20 15 -25
2 -6 -17 7 -7 9 -12 5 -12 -3 0 -2 -12 4 -27 7 -16 11 -47 11 -70 0 -24 4 -40
9 -38 4 3 8 -3 8 -12 1 -35 7 -72 13 -78 3 -4 3 -19 -2 -34 -8 -29 10 -67 25
-53 5 4 5 1 1 -6 -6 -11 -12 -10 -27 4 -10 9 -19 12 -19 6 0 -6 5 -14 10 -17
7 -4 7 -13 0 -26 -6 -11 -8 -24 -5 -29 3 -5 1 -11 -4 -14 -5 -4 -8 5 -6 19 1
14 -2 25 -6 25 -5 0 -10 -6 -11 -12 -2 -23 -5 -33 -12 -50 -4 -9 -5 -22 -1
-28 3 -5 0 -10 -7 -10 -9 0 -9 -3 2 -10 13 -8 12 -10 -3 -10 -10 0 -15 -4 -12
-10 3 -5 1 -10 -5 -10 -6 0 -9 -4 -5 -9 3 -5 1 -12 -5 -16 -6 -4 -8 -11 -5
-16 4 -5 1 -9 -4 -9 -6 0 -11 -9 -11 -20 0 -11 -5 -20 -11 -20 -6 0 -9 -7 -5
-15 3 -8 0 -15 -6 -15 -6 0 -8 -3 -5 -7 4 -3 -2 -13 -13 -20 -11 -8 -18 -19
-15 -24 4 -5 1 -9 -4 -9 -6 0 -11 -7 -11 -16 0 -8 -4 -13 -9 -10 -17 11 -18
-19 -2 -34 22 -21 26 -44 6 -37 -9 4 -15 1 -15 -8 0 -8 4 -15 8 -15 4 0 8 -9
9 -20 1 -11 -2 -20 -8 -20 -5 0 -9 -9 -9 -20 0 -11 -3 -20 -8 -20 -4 0 -18
-24 -31 -52 -13 -29 -27 -55 -31 -58 -4 -3 -11 -18 -17 -35 -8 -23 -16 -30
-37 -30 -15 -1 -30 -5 -34 -10 -11 -15 -92 -57 -92 -48 0 4 -5 0 -11 -9 -5
-10 -19 -18 -30 -18 -11 0 -18 -4 -14 -9 3 -5 -4 -12 -15 -16 -11 -3 -20 -11
-20 -16 0 -5 -3 -8 -7 -7 -5 2 -26 -8 -48 -21 -22 -14 -44 -24 -48 -23 -5 2
-11 -7 -14 -18 -3 -12 -24 -30 -49 -42 -49 -23 -53 -38 -25 -84 17 -27 17 -32
3 -50 -10 -13 -13 -14 -9 -3 3 9 2 22 -3 28 -5 8 -8 2 -8 -15 0 -16 4 -32 9
-35 10 -6 19 -36 24 -79 2 -14 4 -27 5 -30 1 -3 1 -16 0 -29 -1 -13 2 -21 7
-18 5 3 10 -22 12 -56 5 -107 8 -134 14 -144 7 -11 21 -155 22 -215 0 -21 3
-38 6 -38 3 0 9 -23 12 -50 3 -28 9 -56 13 -62 4 -6 7 -31 7 -55 0 -24 4 -43
9 -43 5 0 7 -4 3 -9 -3 -5 -1 -12 5 -16 6 -4 8 -10 5 -15 -3 -4 7 -15 21 -25
14 -9 53 -43 86 -76 33 -32 63 -59 67 -59 5 0 14 -14 21 -30 11 -26 15 -28 28
-18 9 7 13 8 10 3 -12 -20 9 -38 48 -41 20 -2 41 -9 45 -15 4 -6 12 -8 18 -5
6 4 11 2 11 -3 0 -6 9 -11 20 -11 11 0 20 -5 20 -11 0 -6 7 -8 16 -5 8 3 12 2
9 -4 -6 -10 7 -14 33 -11 7 1 11 -3 10 -9 -2 -7 6 -17 16 -23 30 -18 38 -24
71 -53 17 -14 24 -23 18 -19 -8 4 -11 1 -8 -7 3 -8 15 -15 28 -15 12 -1 26 -8
32 -16 5 -8 18 -13 28 -11 9 1 17 -2 17 -7 0 -5 11 -9 25 -9 14 0 25 -4 25 -8
0 -5 15 -8 34 -7 19 0 32 -3 30 -7 -3 -4 1 -8 8 -9 7 0 22 -3 33 -5 11 -3 30
-6 42 -7 24 -2 32 -17 11 -17 -11 -1 19 -24 32 -25 3 0 14 -6 25 -13 18 -12
17 -13 -10 -7 -23 4 -26 3 -13 -5 18 -11 45 -9 66 3 7 5 12 3 12 -4 0 -8 5 -7
17 2 10 9 14 9 10 2 -6 -9 2 -11 28 -8 20 3 35 1 35 -6 0 -6 6 -7 17 -1 9 6
28 6 42 2 22 -7 96 -19 139 -22 6 -1 12 -4 12 -8 0 -3 24 -7 53 -9 28 -1 53
-6 55 -11 2 -6 11 -6 22 0 11 6 21 6 24 1 8 -12 30 -8 52 9 17 14 18 14 5 -2
-7 -10 -12 -18 -10 -19 2 0 37 -2 77 -4 58 -3 72 -1 72 11 0 8 8 14 18 13 10
0 12 -3 5 -6 -7 -2 -13 -9 -13 -14 0 -11 134 -5 164 7 15 6 18 4 12 -7 -6 -11
-4 -10 6 1 7 8 20 16 28 18 8 2 20 12 28 23 7 11 18 17 23 14 5 -4 9 0 9 8 0
8 7 20 15 27 8 7 13 16 10 20 -3 5 -1 11 5 15 5 3 10 15 10 26 0 11 4 18 9 15
4 -3 8 8 7 23 -1 16 -3 28 -6 26 -10 -6 -37 20 -44 43 -4 12 -11 20 -16 17 -5
-3 -14 1 -22 8 -41 40 -138 91 -122 64 6 -9 5 -9 -7 0 -9 7 -24 14 -35 16 -33
5 -154 68 -154 80 0 7 -4 6 -10 -3 -8 -13 -10 -12 -10 3 0 9 -3 16 -7 15 -5
-1 -31 10 -60 24 -28 14 -54 24 -57 21 -3 -4 -6 1 -6 10 0 11 -5 14 -17 10
-11 -4 -14 -3 -9 5 4 7 1 12 -7 12 -8 0 -22 9 -33 21 -11 12 -26 18 -37 15
-10 -2 -16 -2 -13 1 3 3 -5 14 -17 23 -17 14 -25 16 -36 7 -11 -9 -13 -9 -8
-1 8 14 -18 38 -32 30 -5 -3 -12 1 -15 10 -4 9 -13 14 -21 10 -9 -3 -15 1 -15
10 0 10 -6 14 -14 11 -8 -3 -20 1 -27 9 -6 8 -24 17 -39 22 l-28 7 14 40 c18
49 24 85 14 85 -8 0 -25 49 -22 63 1 4 -2 7 -7 7 -13 0 -21 39 -9 46 6 4 8 28
6 55 -3 27 -1 46 3 43 5 -3 6 2 3 10 -3 9 -10 16 -15 16 -5 0 -9 7 -9 16 0 9
-9 27 -20 41 -11 14 -17 29 -14 34 3 5 1 8 -4 7 -6 -2 -10 -1 -9 2 1 3 -7 21
-17 40 -32 60 -36 69 -36 85 0 8 -11 38 -24 65 -13 28 -19 47 -13 44 7 -3 4 1
-5 9 -10 8 -15 17 -11 20 3 4 0 14 -8 24 -8 9 -9 14 -2 10 7 -5 9 0 6 13 -3
11 -9 17 -14 14 -5 -3 -7 11 -4 30 3 24 0 36 -8 36 -8 0 -8 3 2 9 9 6 10 11 3
15 -6 4 -9 23 -6 44 2 20 4 47 4 59 0 12 5 25 10 28 6 4 8 11 5 16 -4 5 1 9
10 9 9 0 16 7 15 17 -3 29 11 63 27 63 8 0 11 4 8 10 -10 16 32 100 49 100 9
0 16 -6 16 -12 0 -10 3 -9 9 1 7 11 9 11 13 0 4 -11 9 -9 24 5 10 11 19 24 19
29 0 5 8 15 19 22 10 8 16 21 13 29 -3 8 5 22 19 33 13 10 22 24 19 30 -2 7 2
13 10 13 8 0 17 11 21 25 3 14 11 25 16 25 6 0 8 7 4 15 -3 9 0 15 9 15 15 0
19 12 15 39 -2 13 0 13 16 0 10 -7 15 -9 11 -2 -4 6 -3 14 2 18 5 3 8 14 6 25
-2 11 1 23 7 26 7 4 8 2 4 -4 -4 -7 -2 -12 3 -12 6 0 11 6 11 14 0 7 7 19 15
26 8 7 15 21 15 31 0 11 6 19 14 19 8 0 17 7 20 16 3 8 2 12 -3 9 -5 -3 -13
-1 -16 5 -4 6 -1 9 7 8 7 -2 12 3 10 10 -1 8 2 11 8 7 14 -8 32 14 65 80 14
28 35 58 46 67 13 11 19 24 15 34 -5 13 -4 14 7 6 19 -16 29 -4 16 19 -7 15
-6 19 6 19 9 0 18 8 22 17 3 10 15 26 27 35 13 11 16 18 8 18 -8 0 0 11 17 25
18 16 28 32 24 40 -3 9 1 15 11 15 9 0 15 3 14 8 -3 14 22 62 32 62 5 0 10 6
10 13 0 7 9 23 20 35 11 12 20 23 20 26 0 3 14 25 30 49 17 25 30 48 30 51 0
4 11 17 25 30 13 13 22 26 18 29 -3 4 -1 7 5 7 6 0 14 10 18 22 3 12 12 28 18
35 29 32 34 41 29 46 -5 6 5 20 43 61 11 13 18 28 16 34 -2 7 4 12 13 12 9 0
14 4 10 10 -3 5 3 18 15 30 11 11 20 25 20 31 0 6 11 25 25 43 14 18 25 38 25
45 0 7 5 9 10 6 6 -3 10 0 10 7 0 8 14 33 31 56 17 23 28 42 24 42 -3 0 5 11
19 24 15 13 26 30 26 38 0 9 7 21 15 28 8 7 15 18 15 25 0 7 7 18 15 25 9 7
14 19 11 26 -3 8 0 13 7 11 7 -1 11 6 11 15 -1 10 2 15 7 12 9 -5 11 10 11 78
0 38 -28 98 -46 98 -5 0 -7 3 -3 6 3 3 -5 24 -19 45 -13 21 -24 43 -24 49 0 5
-4 10 -10 10 -5 0 -10 7 -10 15 0 8 -4 15 -10 15 -5 0 -10 6 -10 14 0 7 -8 24
-18 37 -10 13 -17 30 -16 37 1 6 2 19 3 27 0 8 4 14 9 13 4 -2 8 1 9 5 1 4 9
15 18 23 8 9 13 20 10 25 -4 5 1 9 10 9 9 0 14 4 11 9 -3 5 3 20 14 34 11 13
20 40 22 58 1 19 5 39 10 45 4 6 -16 35 -52 72 -33 33 -60 65 -60 71 0 6 -10
16 -22 22 -29 16 -48 35 -48 49 0 6 -4 8 -10 5 -5 -3 -10 1 -10 10 0 10 -5 13
-12 9 -8 -5 -9 -2 -5 10 4 11 3 15 -4 11 -6 -4 -13 2 -16 14 -3 11 -8 19 -12
17 -7 -5 -100 92 -94 98 3 2 -5 7 -16 11 -12 3 -19 10 -16 15 3 5 -3 14 -14
19 -10 6 -29 27 -41 46 -12 19 -28 35 -36 35 -9 0 -12 5 -8 12 5 8 2 9 -10 5
-9 -4 -15 -3 -12 2 3 5 -3 18 -13 29 -13 16 -21 18 -29 10 -8 -8 -9 -5 -5 11
3 12 1 21 -6 21 -6 0 -10 5 -8 12 1 7 -4 12 -10 13 -7 0 -14 5 -15 10 -5 19
-33 45 -50 45 -9 0 -20 4 -23 10 -3 6 1 7 9 4 9 -3 16 -3 16 0 0 4 -11 11 -25
16 -14 5 -24 13 -23 17 2 5 -30 41 -70 81 -40 41 -69 78 -66 84 4 7 2 8 -5 4
-6 -4 -14 0 -17 9 -4 10 -14 15 -24 12 -13 -3 -16 0 -13 14 4 13 0 19 -11 19
-9 0 -16 7 -16 15 0 9 -7 18 -15 21 -8 4 -12 10 -9 15 5 8 -10 13 -29 10 -5
-1 -6 3 -3 7 7 12 -30 46 -42 38 -6 -3 -8 2 -5 13 3 11 -2 21 -11 24 -9 4 -16
13 -16 22 0 8 -7 15 -15 15 -8 0 -15 6 -15 13 0 8 -11 19 -25 25 -14 7 -30 23
-37 37 -6 14 -15 25 -20 25 -5 0 -27 19 -49 43 -22 23 -44 42 -48 42 -12 0
-107 88 -114 106 -4 9 -6 10 -6 2 -1 -7 -6 -13 -12 -13 -5 0 -8 4 -5 9 8 13
-21 34 -35 25 -8 -5 -9 -3 -5 5 9 13 -23 43 -37 34 -4 -2 -6 1 -5 9 2 7 -3 12
-9 11 -7 -2 -13 2 -13 7 0 14 -51 59 -67 60 -7 0 -13 7 -13 15 0 19 -40 41
-41 23 0 -7 -4 -3 -9 10 -5 12 -14 22 -20 22 -5 0 -10 6 -10 13 0 6 -14 20
-30 29 -17 9 -30 24 -30 33 0 8 -9 15 -20 15 -11 0 -19 5 -17 11 1 6 -7 16
-18 22 -11 7 -26 20 -33 30 -7 9 -18 15 -23 12 -5 -4 -9 -1 -9 5 0 6 -4 8 -10
5 -5 -3 -10 -1 -10 5 0 5 -12 18 -28 28 -15 9 -27 24 -27 32 1 19 -22 58 -55
90 -27 28 -79 31 -108 8 -13 -11 -14 -10 -8 0 10 16 -25 13 -36 -3 -11 -14
-10 8 1 37 9 24 10 24 94 20 18 -1 41 -14 60 -34 17 -18 28 -28 24 -21 -7 12
47 36 57 26 3 -4 6 -2 6 4 0 5 7 10 15 10 8 0 12 -4 10 -8 -4 -6 16 -12 85
-25 8 -2 22 -11 30 -22 9 -10 21 -17 27 -15 6 2 14 -1 18 -7 5 -8 11 -8 21 1
11 9 14 9 14 -1 0 -10 3 -10 15 0 12 10 15 10 15 -1 0 -10 2 -11 8 -2 6 10 76
25 120 26 6 0 12 4 12 9 0 4 6 7 13 5 6 -1 11 4 10 11 -2 6 5 12 14 12 15 0
14 2 -3 15 -17 13 -17 14 -2 15 11 0 15 5 12 15 -4 8 1 17 9 21 8 3 17 18 20
33 7 32 70 166 92 195 8 11 15 27 15 37 0 9 7 19 15 23 8 3 15 12 15 21 0 8 4
15 9 15 5 0 12 13 16 29 3 16 13 32 22 35 9 4 13 9 9 13 -3 3 5 25 19 49 14
23 25 50 25 58 0 9 4 16 10 16 5 0 14 18 20 41 6 22 20 55 30 74 10 18 16 36
13 39 -3 3 2 17 11 30 9 14 16 33 16 43 0 10 6 27 14 38 7 11 17 35 21 53 3
17 11 32 16 32 5 0 9 9 9 19 0 24 38 91 52 91 5 0 7 4 4 8 -3 5 8 21 23 36 16
16 31 23 35 18 7 -11 24 -11 42 1 7 4 15 22 18 40 3 18 15 39 26 47 11 8 20
18 20 23 0 10 25 37 34 37 12 0 88 76 100 100 19 35 5 64 -43 91 -23 12 -41
26 -41 31 0 4 -6 8 -14 8 -8 0 -16 3 -18 8 -6 13 -68 43 -78 37 -6 -3 -10 -1
-10 5 0 6 -4 9 -9 6 -5 -3 -8 0 -8 7 1 6 -2 44 -7 82 -12 86 -10 78 -17 90
-10 17 -7 229 4 250 7 13 7 20 -1 23 -6 2 -9 9 -6 17 3 7 -5 22 -17 34 -19 17
-22 32 -23 103 -1 46 2 99 6 118 4 19 12 60 18 90 7 30 14 62 17 70 4 8 5 21
4 28 -1 6 2 12 6 12 5 0 10 12 11 26 1 15 7 33 13 40 9 11 8 14 -2 14 -9 0
-10 3 -4 8 6 4 10 14 10 22 0 8 5 14 12 13 7 -2 10 4 7 12 -4 8 -1 15 6 15 17
0 2 41 -24 65 -11 12 -36 27 -53 34 -18 7 -31 17 -28 21 7 11 -22 6 -32 -5 -4
-4 -1 -5 7 -1 8 4 6 0 -4 -8 -11 -9 -23 -16 -28 -16 -4 0 -8 -11 -8 -25 0 -14
-4 -25 -9 -25 -8 0 -22 -32 -25 -55 -1 -5 -4 -12 -8 -15 -4 -3 -10 -17 -12
-30 -2 -14 -5 -27 -6 -30 -1 -3 -3 -9 -5 -15 -1 -5 -3 -12 -5 -15 -1 -3 -4
-14 -5 -25 -2 -11 -4 -27 -6 -35 -2 -8 1 -14 8 -13 8 2 7 -5 -2 -24 -11 -21
-12 -29 -2 -35 9 -6 9 -8 0 -8 -17 0 -22 11 -24 61 -2 24 -7 47 -12 51 -6 3
-11 17 -11 30 -1 12 -5 29 -9 36 -5 6 -5 18 -1 25 4 6 4 9 -1 5 -5 -5 -16 5
-26 21 -10 16 -27 32 -38 36 -12 3 -21 11 -21 17 0 6 -9 8 -20 5 -11 -3 -18
-2 -15 3 3 4 -5 10 -16 13 -17 5 -20 2 -16 -15 3 -11 3 -17 0 -14 -8 8 -43
-39 -43 -59 0 -9 -8 -19 -19 -22 -28 -7 -62 -81 -58 -125 2 -21 -1 -38 -6 -38
-4 0 -2 -6 6 -14 16 -17 31 -92 21 -108 -4 -6 -3 -8 3 -5 6 4 13 0 17 -8 3 -8
0 -15 -7 -15 -9 0 -9 -2 -1 -8 7 -4 13 -20 15 -37 2 -16 7 -36 12 -42 5 -7 6
-13 1 -13 -5 0 -3 -4 5 -9 9 -6 11 -16 7 -27 -6 -15 -11 -10 -33 26 -14 25
-26 50 -27 55 -1 6 -7 20 -14 32 -7 12 -12 27 -12 34 0 7 -8 21 -17 32 -10 11
-12 17 -5 13 12 -7 12 -4 1 15 -7 13 -13 28 -14 34 0 15 -34 18 -50 5 -8 -7
-15 -20 -15 -30 0 -9 -9 -25 -20 -35 -22 -20 -27 -40 -7 -30 6 4 1 -3 -12 -14
-13 -12 -18 -21 -12 -21 7 0 9 -4 6 -10 -3 -5 -2 -10 2 -10 5 0 9 -12 9 -27 1
-35 14 -83 23 -83 4 0 8 -10 8 -22 3 -44 7 -68 14 -68 7 0 23 -59 20 -78 -1
-7 5 -15 14 -18 8 -3 15 -12 15 -20 0 -8 6 -14 13 -14 7 0 18 -9 25 -20 7 -11
19 -20 28 -20 10 0 14 -6 10 -15 -3 -9 0 -15 9 -15 17 0 18 -10 17 -164 -1
-94 -4 -110 -20 -122 -57 -40 -82 -73 -82 -108 0 -44 21 -126 33 -126 10 0 6
-99 -4 -106 -5 -2 -25 -38 -45 -80 -32 -67 -38 -73 -49 -57 -7 10 -11 21 -9
25 3 5 1 8 -4 8 -5 0 -9 6 -10 13 0 6 -4 22 -7 34 -5 16 -2 23 14 28 37 11 61
45 56 77 -5 28 -10 36 -45 77 -34 39 -60 81 -60 96 0 8 -6 15 -14 15 -8 0 -17
13 -21 29 -3 15 -20 42 -36 59 -17 17 -28 36 -24 41 3 6 -3 18 -15 28 -11 10
-20 28 -20 40 0 13 -4 23 -9 23 -7 0 -13 14 -21 48 -1 4 -9 16 -18 26 -13 15
-14 18 -2 12 8 -4 5 1 -7 10 -19 13 -21 20 -12 36 8 15 8 19 0 14 -6 -4 -11 0
-11 8 0 9 -5 16 -10 16 -6 0 -9 3 -9 8 4 25 -2 42 -13 36 -10 -6 -10 -4 0 8 9
12 10 18 2 23 -6 4 -14 4 -17 1 -3 -3 -26 9 -51 26 -25 17 -51 31 -58 31 -7 0
-10 7 -6 15 3 10 1 13 -6 8 -7 -4 -12 -2 -12 3 0 6 -6 11 -14 11 -8 0 -18 9
-21 20 -4 11 -11 18 -16 15 -5 -4 -12 1 -15 9 -3 9 -12 16 -20 16 -8 0 -14 7
-14 15 0 8 -5 15 -11 15 -6 0 -24 14 -40 31 -18 19 -35 29 -45 25 -9 -3 -12
-2 -9 5 9 14 -14 39 -37 39 -10 0 -16 5 -13 10 7 12 -19 42 -29 33 -3 -3 -9 2
-12 12 -7 17 -54 69 -54 59 0 -3 -7 1 -15 10 -8 8 -15 20 -15 26 0 6 -4 9 -8
6 -5 -3 -19 8 -32 25 -14 16 -30 29 -37 29 -14 0 -7 58 13 109 8 18 14 51 14
72 0 21 5 41 10 44 12 7 14 26 3 23 -5 0 -16 2 -25 6 -24 11 -23 62 1 116 13
30 16 51 11 75 -4 19 -5 36 -2 39 3 4 0 6 -6 6 -7 0 -11 3 -10 8 1 4 -4 20
-11 36 -8 20 -16 26 -28 22 -13 -5 -14 -4 -3 9 7 9 8 15 2 15 -6 0 -9 16 -7
38 2 20 4 37 5 37 1 0 3 18 6 40 4 41 11 80 14 80 1 0 4 38 7 85 3 47 9 88 15
91 7 4 6 9 -1 13 -6 4 -11 14 -11 22 0 14 2 13 16 0 8 -9 22 -16 30 -16 8 0
14 -7 14 -15 0 -8 3 -14 8 -14 22 4 34 -3 28 -16 -4 -11 1 -14 17 -11 12 2 38
-3 57 -11 45 -18 104 -27 135 -19 30 8 33 26 5 26 -11 0 -20 7 -20 15 0 9 -7
18 -15 21 -8 4 -15 12 -15 20 0 8 -4 14 -9 14 -5 0 -14 15 -20 33 -9 24 -14
29 -20 18 -7 -10 -9 -8 -9 10 0 13 -4 40 -8 59 -16 79 -4 318 17 331 6 3 10 9
9 13 0 3 2 23 7 44 9 49 10 52 13 55 6 6 6 57 0 57 -3 0 -12 -6 -19 -12 -8 -7
-11 -8 -8 -3 3 6 -8 21 -24 34 -16 13 -29 29 -29 36 0 7 -11 20 -24 30 -14 11
-22 24 -18 33 3 9 1 13 -5 9 -7 -4 -17 6 -24 22 -7 16 -17 27 -21 25 -4 -3 -8
1 -8 8 0 8 -7 24 -16 37 -13 18 -18 20 -25 10 -7 -11 -9 -10 -9 4 0 10 -6 20
-14 23 -8 3 -20 20 -27 37 -16 38 -41 65 -57 59z m38 -1356 c0 -3 -4 -8 -10
-11 -5 -3 -10 -1 -10 4 0 6 5 11 10 11 6 0 10 -2 10 -4z m1183 -391 c-3 -9 -8
-14 -10 -11 -3 3 -2 9 2 15 9 16 15 13 8 -4z m-1504 -850 c0 -5 -4 -3 -9 5 -5
8 -9 22 -9 30 0 16 17 -16 18 -35z m31 -125 c0 -5 -5 -10 -11 -10 -5 0 -7 5
-4 10 3 6 8 10 11 10 2 0 4 -4 4 -10z m1103 -1637 c-7 -2 -19 -2 -25 0 -7 3
-2 5 12 5 14 0 19 -2 13 -5z m-3010 -280 c-13 -2 -33 -2 -45 0 -13 2 -3 4 22
4 25 0 35 -2 23 -4z m3766 -737 c-3 -3 -11 5 -18 17 -13 21 -12 21 5 5 10 -10
16 -20 13 -22z m311 -280 c0 -2 -7 -7 -16 -10 -8 -3 -12 -2 -9 4 6 10 25 14
25 6z m288 -331 c-3 -3 -9 2 -12 12 -6 14 -5 15 5 6 7 -7 10 -15 7 -18z
m-1675 -59 c4 -10 1 -13 -9 -9 -7 3 -14 9 -14 14 0 14 17 10 23 -5z m-109
-515 c3 -5 -2 -15 -12 -22 -15 -13 -16 -12 -4 3 10 13 10 17 0 21 -9 4 -9 6
-1 6 6 1 14 -3 17 -8z m-1158 -356 c-3 -18 -23 -41 -31 -34 -4 5 22 49 30 49
2 0 2 -7 1 -15z m2171 -411 c-3 -3 -12 -4 -19 -1 -8 3 -5 6 6 6 11 1 17 -2 13
-5z m-4140 -2506 c-3 -7 -5 -2 -5 12 0 14 2 19 5 13 2 -7 2 -19 0 -25z m4168
-276 c-6 -7 -35 18 -35 31 0 5 9 2 20 -8 11 -10 18 -20 15 -23z m45 -12 c0 -5
-4 -10 -9 -10 -6 0 -13 5 -16 10 -3 6 1 10 9 10 9 0 16 -4 16 -10z m25 -20
c-3 -5 -1 -10 4 -10 6 0 11 -5 11 -11 0 -8 -5 -8 -15 1 -13 11 -12 30 1 30 3
0 2 -4 -1 -10z m-4229 -176 c-4 -9 -9 -15 -11 -12 -3 3 -3 13 1 22 4 9 9 15
11 12 3 -3 3 -13 -1 -22z m-149 -99 c0 -8 -4 -12 -9 -9 -5 3 -6 10 -3 15 9 13
12 11 12 -6z m4138 -233 c-6 -5 -21 -3 -35 5 -23 14 -24 14 -2 10 12 -3 22 0
22 6 0 8 4 7 12 -1 7 -7 8 -15 3 -20z"/>
</g>
</svg>
